<?xml version="1.0" standalone="no"?><!DOCTYPE svg PUBLIC "-//W3C//DTD SVG 1.1//EN" "http://www.w3.org/Graphics/SVG/1.1/DTD/svg11.dtd"><svg t="1558503104446" class="icon" style="" viewBox="0 0 1024 1024" version="1.1" xmlns="http://www.w3.org/2000/svg" p-id="2036" xmlns:xlink="http://www.w3.org/1999/xlink" width="200" height="200"><defs><style type="text/css"></style></defs><path d="M924.284 336.97c-22.551-53.309-54.822-101.186-95.925-142.284-41.104-41.104-88.976-73.38-142.29-95.93-55.206-23.351-113.83-35.189-174.253-35.189s-119.051 11.838-174.258 35.189c-53.309 22.55-101.181 54.826-142.285 95.93-41.103 41.098-73.379 88.975-95.925 142.284-23.35 55.202-35.189 113.835-35.189 174.254 0 60.423 11.84 119.050 35.189 174.258 22.545 53.309 54.822 101.18 95.925 142.284 41.103 41.104 88.976 73.38 142.285 95.926 55.206 23.35 113.835 35.188 174.258 35.188s119.046-11.838 174.253-35.188c53.313-22.545 101.186-54.822 142.29-95.926 41.098-41.103 73.374-88.975 95.925-142.284 23.35-55.207 35.189-113.835 35.189-174.258 0-60.42-11.84-119.051-35.189-174.254zM748.653 391.17l-271.552 280.268c-5.27 5.438-12.345 8.433-19.921 8.433-6.971 0-13.636-2.599-18.767-7.318l-164.339-151.048c-11.256-10.347-11.998-27.928-1.653-39.191 5.238-5.698 12.684-8.966 20.428-8.966 6.969 0 13.632 2.597 18.764 7.314l144.448 132.769 252.75-260.864c5.275-5.442 12.353-8.438 19.931-8.438 7.241 0 14.092 2.775 19.293 7.815 10.985 10.645 11.261 28.243 0.616 39.226z" fill="#4da231" p-id="2037"></path></svg>