<?xml version="1.0" standalone="no"?><!DOCTYPE svg PUBLIC "-//W3C//DTD SVG 1.1//EN" "http://www.w3.org/Graphics/SVG/1.1/DTD/svg11.dtd"><svg t="1546089215918" class="icon" style="" viewBox="0 0 1024 1024" version="1.1" xmlns="http://www.w3.org/2000/svg" p-id="2019" xmlns:xlink="http://www.w3.org/1999/xlink" width="200" height="200"><defs><style type="text/css"></style></defs><path d="M993.924741 940.790519l-172.86637-172.86637C888.452741 688.564148 929.185185 585.860741 929.185185 473.581037c0-251.354074-203.757037-455.111111-455.111111-455.111111s-455.111111 203.757037-455.111111 455.111111 203.757037 455.111111 455.111111 455.111111c111.767704 0 214.072889-40.353185 293.281185-107.216593l172.942222 172.942222c14.810074 14.810074 38.817185 14.810074 53.627259 0C1008.734815 979.607704 1008.734815 955.600593 993.924741 940.790519zM474.074074 852.840296c-209.464889 0-379.259259-169.79437-379.259259-379.259259s169.79437-379.259259 379.259259-379.259259 379.259259 169.79437 379.259259 379.259259S683.538963 852.840296 474.074074 852.840296z" p-id="2020" fill="#bfbfbf"></path></svg>