<?xml version="1.0" standalone="no"?><!DOCTYPE svg PUBLIC "-//W3C//DTD SVG 1.1//EN" "http://www.w3.org/Graphics/SVG/1.1/DTD/svg11.dtd"><svg t="1571721626656" class="icon" viewBox="0 0 1024 1024" version="1.1" xmlns="http://www.w3.org/2000/svg" p-id="1574" xmlns:xlink="http://www.w3.org/1999/xlink" width="200" height="200"><defs><style type="text/css"></style></defs><path d="M876.288 374.848h-64C812.288 203.456 677.568 64 512 64V0c200.896 0 364.288 168.128 364.288 374.848z" p-id="1575"></path><path d="M512 1024C427.008 1024 147.712 629.632 147.712 374.848 147.712 168.128 311.104 0 512 0v64C346.432 64 211.712 203.456 211.712 374.848c0 234.688 252.672 568 304.128 585.664L512 1024z" p-id="1576"></path><path d="M512 1024v-64c48.96-17.472 300.288-343.808 300.288-585.152h64C876.288 637.632 599.104 1024 512 1024zM512 544c-97.088 0-176-78.912-176-176S414.912 192 512 192s176 78.912 176 176S609.088 544 512 544zM512 256c-61.76 0-112 50.24-112 112S450.24 480 512 480s112-50.24 112-112S573.76 256 512 256z" p-id="1577"></path></svg>