<?xml version="1.0" standalone="no"?><!DOCTYPE svg PUBLIC "-//W3C//DTD SVG 1.1//EN" "http://www.w3.org/Graphics/SVG/1.1/DTD/svg11.dtd"><svg t="1546059615691" class="icon" style="" viewBox="0 0 1024 1024" version="1.1" xmlns="http://www.w3.org/2000/svg" p-id="2287" xmlns:xlink="http://www.w3.org/1999/xlink" width="200" height="200"><defs><style type="text/css"></style></defs><path d="M981.735378 583.916922c-6.122924 0-12.245848-2.528837-16.917256-7.585505L503.14643 76.890125 41.478762 576.331416c-9.347845 10.113336-24.491696 10.113336-33.838535 0-9.347845-10.111325-9.347845-26.493441 0-36.606777L486.228168 21.980965c9.346839-10.11233 24.489684-10.11233 33.838535 0l478.58593 517.74468c9.347845 10.113336 9.347845 26.495452 0 36.606777C993.981226 581.38909 987.858302 583.916922 981.735378 583.916922zM790.300201 1023.99995 622.793415 1023.99995c-13.224591 0-23.929397-11.577929-23.929397-25.886882 0-14.308953 10.704807-25.885876 23.929397-25.885876l167.506786 0c26.383797 0 47.858794-23.235325 47.858794-51.775776L838.158995 635.691691c0-14.309959 10.702795-25.886882 23.929397-25.886882 13.224591 0 23.929397 11.577929 23.929397 25.886882l0 284.759725C886.017789 977.559477 843.089926 1023.99995 790.300201 1023.99995zM383.50045 1023.99995 215.995677 1023.99995c-52.790731 0-95.7196-46.440473-95.7196-103.548534L120.276076 428.592612c0-14.308953 10.704807-25.886882 23.929397-25.886882 13.227608 0 23.929397 11.577929 23.929397 25.886882l0 491.858804c0 28.540451 21.476003 51.775776 47.860806 51.775776l143.575377 0L359.571053 739.240225c0-14.308953 10.701789-25.886882 23.929397-25.886882l239.292965 0c13.227608 0 23.929397 11.578935 23.929397 25.886882 0 14.309959-10.701789 25.886882-23.929397 25.886882l-215.363568 0 0 232.984955C407.429847 1012.42202 396.727053 1023.99995 383.50045 1023.99995z" p-id="2288" fill="#d81e06"></path></svg>