<?xml version="1.0" standalone="no"?><!DOCTYPE svg PUBLIC "-//W3C//DTD SVG 1.1//EN" "http://www.w3.org/Graphics/SVG/1.1/DTD/svg11.dtd"><svg t="1546075765321" class="icon" style="" viewBox="0 0 1024 1024" version="1.1" xmlns="http://www.w3.org/2000/svg" p-id="6934" xmlns:xlink="http://www.w3.org/1999/xlink" width="200" height="200"><defs><style type="text/css"></style></defs><path d="M798.367635 897.077286 159.108253 897.077286c-52.906977 0-95.959515-43.063795-95.959515-95.959515L63.148737 222.881207c0-52.910047 43.052538-95.956446 95.959515-95.956446l642.200364 0c52.910047 0 95.958492 43.046399 95.958492 95.956446l0 94.002954c0 17.657148-14.300704 31.988552-31.988552 31.988552-17.683754 0-31.978319-14.331403-31.978319-31.988552l0-94.002954c0-17.619286-14.334473-31.988552-31.992645-31.988552L159.108253 190.892655c-17.629519 0-31.988552 14.369266-31.988552 31.988552l0 578.23554c0 17.654079 14.359033 31.978319 31.988552 31.978319l639.258359 0c17.658172 0 31.988552-14.32424 31.988552-31.978319l0-98.896404c0-17.693987 14.292518-31.988552 31.982412-31.988552s31.994692 14.294564 31.994692 31.988552l0 98.896404C894.332267 854.013491 851.303264 897.077286 798.367635 897.077286L798.367635 897.077286z" p-id="6935" fill="#1296db"></path><path d="M691.725826 510.830361c0-0.024559 0.00614-0.051165 0.00614-0.075725l-0.00614 0c-0.044002-8.142447-3.409656-16.223496-9.165754-21.989827-5.8001-5.792936-13.95278-9.165754-22.145369-9.165754-8.194636 0-16.349363 3.372817-22.141276 9.165754-5.760191 5.76633-9.121751 13.847379-9.165754 21.989827l-0.00614 0c0 0.024559 0 0.051165 0 0.075725 0 0.022513 0 0.048095 0 0.085958l0.00614 0c0.044002 8.142447 3.405563 16.213263 9.165754 21.978571 5.791913 5.801123 13.936407 9.16473 22.141276 9.16473 8.192589 0 16.34527-3.363607 22.13923-9.16473 5.756097-5.765307 9.127891-13.836123 9.171893-21.978571l0.00614 0C691.731966 510.877433 691.725826 510.852874 691.725826 510.830361z" p-id="6936" fill="#1296db"></path><path d="M903.146003 638.09486 572.486094 638.09486c-31.336706 0-56.831356-25.495674-56.831356-56.833403L515.654738 440.042131c0-31.337729 25.494651-56.83238 56.831356-56.83238l330.659909 0c31.336706 0 56.831356 25.494651 56.831356 56.83238L959.977359 581.261457C959.977359 612.599186 934.482709 638.09486 903.146003 638.09486zM577.652767 576.095807l320.324516 0L897.977283 445.208804 577.652767 445.208804 577.652767 576.095807z" p-id="6937" fill="#1296db"></path></svg>