<?xml version="1.0" standalone="no"?><!DOCTYPE svg PUBLIC "-//W3C//DTD SVG 1.1//EN" "http://www.w3.org/Graphics/SVG/1.1/DTD/svg11.dtd"><svg t="1546075919492" class="icon" style="" viewBox="0 0 1026 1024" version="1.1" xmlns="http://www.w3.org/2000/svg" p-id="9140" xmlns:xlink="http://www.w3.org/1999/xlink" width="200.390625" height="200"><defs><style type="text/css"></style></defs><path d="M926.528 275.648H99.712C43.776 275.648 0 215.104 0 137.856 0 60.544 43.776 0 99.712 0h826.752c55.872 0 99.712 60.544 99.712 137.856 0 77.248-43.776 137.792-99.648 137.792zM99.712 47.488c-24.768 0-52.224 37.12-52.224 90.368 0 53.312 27.52 90.368 52.224 90.368h826.752c24.704 0 52.224-37.056 52.224-90.368 0-53.248-27.584-90.368-52.224-90.368H99.712z" fill="#1296db" p-id="9141"></path><path d="M795.264 991.744H231.616c-91.648 0-166.144-87.104-166.144-194.24v-378.88c0-107.136 74.496-194.24 166.144-194.24h563.648c91.648 0 166.208 87.104 166.208 194.24v378.88c-0.064 107.136-74.624 194.24-166.208 194.24zM231.616 271.872c-65.408 0-118.656 65.856-118.656 146.752v378.88c0 80.96 53.248 146.752 118.656 146.752h563.648c65.408 0 118.656-65.792 118.656-146.752v-378.88c0-80.896-53.184-146.752-118.656-146.752H231.616z" fill="#1296db" p-id="9142"></path><path d="M703.296 631.808H323.584a23.68 23.68 0 1 1 0-47.488h379.712c13.12 0 23.68 10.624 23.68 23.744s-10.56 23.744-23.68 23.744z" fill="#1296db" p-id="9143"></path></svg>