<?xml version="1.0" standalone="no"?><!DOCTYPE svg PUBLIC "-//W3C//DTD SVG 1.1//EN" "http://www.w3.org/Graphics/SVG/1.1/DTD/svg11.dtd"><svg class="icon" width="200px" height="200.00px" viewBox="0 0 1024 1024" version="1.1" xmlns="http://www.w3.org/2000/svg"><path fill="#cccccc" d="M768 981.333333H170.666667c-72.533333 0-128-55.466667-128-128V256c0-72.533333 55.466667-128 128-128h298.666666c25.6 0 42.666667 17.066667 42.666667 42.666667s-17.066667 42.666667-42.666667 42.666666H170.666667c-25.6 0-42.666667 17.066667-42.666667 42.666667v597.333333c0 25.6 17.066667 42.666667 42.666667 42.666667h597.333333c25.6 0 42.666667-17.066667 42.666667-42.666667v-298.666666c0-25.6 17.066667-42.666667 42.666666-42.666667s42.666667 17.066667 42.666667 42.666667v298.666666c0 72.533333-55.466667 128-128 128zM341.333333 725.333333c-12.8 0-21.333333-4.266667-29.866666-12.8-12.8-8.533333-17.066667-25.6-12.8-38.4l42.666666-170.666666c0-8.533333 4.266667-12.8 12.8-21.333334l405.333334-405.333333C810.666667 25.6 896 25.6 947.2 76.8c51.2 51.2 51.2 136.533333 0 187.733333l-405.333333 405.333334c-4.266667 4.266667-12.8 8.533333-21.333334 12.8l-170.666666 42.666666H341.333333z m81.066667-192l-21.333333 89.6 89.6-21.333333 396.8-396.8c17.066667-17.066667 17.066667-46.933333 0-68.266667-17.066667-17.066667-51.2-17.066667-68.266667 0l-396.8 396.8z m366.933333-426.666666z" /></svg>