<?xml version="1.0" standalone="no"?><!DOCTYPE svg PUBLIC "-//W3C//DTD SVG 1.1//EN" "http://www.w3.org/Graphics/SVG/1.1/DTD/svg11.dtd"><svg t="1546075516773" class="icon" style="" viewBox="0 0 1024 1024" version="1.1" xmlns="http://www.w3.org/2000/svg" p-id="1401" xmlns:xlink="http://www.w3.org/1999/xlink" width="200" height="200"><defs><style type="text/css"></style></defs><path d="M510.999207 64.425312c-245.292636 0-445.986517 200.693882-445.986518 445.986517 0 245.293659 200.693882 445.98754 445.986518 445.98754 245.293659 0 445.98754-200.693882 445.98754-445.98754 0-245.292636-200.693882-445.986517-445.98754-445.986517z m0 802.776549c-196.234313 0-356.789009-160.554696-356.78901-356.790032 0-196.234313 160.554696-356.789009 356.78901-356.789009 196.235336 0 356.790032 160.554696 356.790032 356.789009S707.235566 867.201861 510.999207 867.201861z" p-id="1402" fill="#1296db"></path><path d="M681.887248 537.234731H510.421039V311.449381c0-19.061125-15.438621-34.515095-34.516119-34.515094-19.078521 0-34.516118 15.45397-34.516118 34.515094v260.301468c0 19.061125 15.437597 34.515095 34.516118 34.515095h205.982328c19.077497 0 34.515095-15.45397 34.515095-34.515095 0-19.062148-15.436574-34.516118-34.515095-34.516118z" p-id="1403" fill="#1296db"></path></svg>