<?xml version="1.0" standalone="no"?><!DOCTYPE svg PUBLIC "-//W3C//DTD SVG 1.1//EN" "http://www.w3.org/Graphics/SVG/1.1/DTD/svg11.dtd"><svg t="1547102004293" class="icon" style="" viewBox="0 0 1024 1024" version="1.1" xmlns="http://www.w3.org/2000/svg" p-id="5127" data-spm-anchor-id="a313x.7781069.0.i2" xmlns:xlink="http://www.w3.org/1999/xlink" width="200" height="200"><defs><style type="text/css"></style></defs><path d="M933.61493333 996.9664H88.20053333c-17.47626667 0-34.95253333-8.73813333-45.8752-21.84533333-10.92266667-15.29173333-15.29173333-32.768-10.92266666-50.24426667 43.69066667-222.8224 225.00693333-388.84693333 443.46026666-406.3232 73.18186667 0 152.3712 9.28426667 231.56053334 41.50613333 22.9376 9.28426667 30.58346667 15.29173333 43.69066666 21.84533334 126.70293333 72.0896 214.08426667 196.608 242.4832 342.97173333 4.36906667 17.47626667 0 34.95253333-13.1072 50.24426667-10.92266667 13.1072-28.39893333 21.84533333-45.8752 21.84533333z" fill="#8a8a8a" p-id="5128"></path><path d="M89.2928 961.46773333c-7.09973333 0-13.65333333-2.73066667-17.47626667-7.64586666-0.54613333-0.54613333-0.54613333-1.09226667-1.09226666-1.6384-5.46133333-5.46133333-6.00746667-14.7456-4.9152-20.20693334 40.41386667-207.53066667 210.26133333-363.17866667 413.42293333-377.92426666h16.384c97.75786667 0 191.6928 30.58346667 237.568 59.52853333C853.33333333 685.6704 933.61493333 798.72 958.73706667 931.97653333c1.09226667 7.64586667-0.54613333 14.7456-6.00746667 21.84533334-3.82293333 4.9152-10.37653333 7.64586667-17.47626667 7.64586666H89.2928z" fill="#8a8a8a" p-id="5129"></path><path d="M495.616 567.15946667c95.0272 0 186.23146667 29.4912 230.46826667 57.344h0.54613333c116.87253333 69.35893333 194.42346667 179.13173333 218.45333333 309.11146666 0.54613333 2.73066667 0.54613333 6.5536-3.82293333 11.4688-0.54613333 1.09226667-3.2768 2.18453333-6.5536 2.18453334H89.2928c-3.2768 0-6.00746667-1.09226667-6.5536-2.18453334-0.54613333-1.09226667-1.6384-2.18453333-2.73066667-2.73066666-1.09226667-1.09226667-2.18453333-4.36906667-1.09226666-8.192 39.3216-201.5232 203.70773333-352.256 400.86186666-367.0016 4.9152 0.54613333 10.37653333 0 15.83786667 0m0-27.30666667c-5.46133333 0-11.4688 0-16.93013333 0.54613333C268.97066667 555.69066667 94.208 715.1616 52.70186667 929.24586667c-2.18453333 10.92266667 0 24.02986667 8.73813333 32.768 6.5536 8.73813333 17.47626667 13.1072 28.39893333 13.1072H935.25333333c10.92266667 0 21.84533333-4.36906667 28.39893334-13.1072 6.5536-8.73813333 10.92266667-19.6608 8.73813333-32.768-26.2144-139.81013333-109.22666667-254.49813333-231.56053333-327.68-46.42133333-28.94506667-141.44853333-61.71306667-245.21386667-61.71306667zM512 538.2144c-137.6256 0-251.22133333-113.59573333-251.22133333-251.22133333S374.3744 35.77173333 512 35.77173333s251.22133333 113.59573333 251.22133333 251.22133334S649.6256 538.2144 512 538.2144z" fill="#8a8a8a" p-id="5130"></path><path d="M512 502.71573333c-119.05706667 0-215.72266667-96.6656-215.72266667-215.72266666S392.94293333 71.2704 512 71.2704s215.72266667 96.6656 215.72266667 215.72266667-96.6656 215.72266667-215.72266667 215.72266666z" fill="#8a8a8a" p-id="5131"></path><path d="M512 84.92373333c111.4112 0 202.06933333 90.65813333 202.06933333 202.06933334S623.4112 489.0624 512 489.0624s-202.06933333-90.65813333-202.06933333-202.06933333 90.65813333-202.06933333 202.06933333-202.06933334m0-27.30666666c-126.70293333 0-229.376 102.67306667-229.376 229.376s102.67306667 229.376 229.376 229.376 229.376-102.67306667 229.376-229.376S638.70293333 57.61706667 512 57.61706667z" fill="#8a8a8a" p-id="5132"></path></svg>