<?xml version="1.0" standalone="no"?><!DOCTYPE svg PUBLIC "-//W3C//DTD SVG 1.1//EN" "http://www.w3.org/Graphics/SVG/1.1/DTD/svg11.dtd"><svg t="1571721687288" class="icon" viewBox="0 0 1024 1024" version="1.1" xmlns="http://www.w3.org/2000/svg" p-id="1814" xmlns:xlink="http://www.w3.org/1999/xlink" width="200" height="200"><defs><style type="text/css"></style></defs><path d="M517.184 944c-53.12 0-96.96-31.04-116.928-61.888-19.136-29.632-143.424-232.768-253.056-411.904L25.856 271.872c-37.44-68.928-27.2-113.216-12.16-138.496 20.48-34.432 60.8-53.376 113.408-53.376h783.04c40.512 0 78.08 21.184 98.112 55.36 23.104 39.36 20.48 90.496-7.296 140.352L627.584 884.48c-38.656 49.728-81.216 59.52-110.4 59.52zM127.104 144c-28.736 0-50.048 8.064-58.432 22.144-9.28 15.552-4.8 41.728 12.608 73.792l120.576 196.864c109.44 178.88 233.472 381.632 252.16 410.624 10.24 15.808 35.84 32.64 63.168 32.64 21.824 0 41.344-10.752 57.92-32l370.688-604.608c16-28.8 18.816-56 7.296-75.648a49.536 49.536 0 0 0-42.944-23.808H127.104z" p-id="1815"></path><path d="M768.704 258.752c-59.904 44.096-208.96 190.272-268.352 247.296a29.44 29.44 0 0 1-41.344-0.64l-54.72-54.272c-50.752-52.736-92.032-14.208-68.608 19.584L451.456 634.24c20.16 16.768 45.76 27.52 68.672-0.704 43.072-52.992 182.848-214.016 271.424-314.368 35.392-40 7.296-82.24-22.848-60.416" p-id="1816"></path></svg>